<?xml version="1.0" encoding="utf-8"?>
<!-- Generator: Adobe Illustrator 28.3.0, SVG Export Plug-In . SVG Version: 6.00 Build 0)  -->
<svg version="1.1" id="Calque_1" xmlns="http://www.w3.org/2000/svg" xmlns:xlink="http://www.w3.org/1999/xlink" x="0px" y="0px"
	 viewBox="0 0 24 24" style="enable-background:new 0 0 24 24;" xml:space="preserve">
<path d="M6.5,20c-1.5,0-2.8-0.5-3.9-1.6C1.5,17.4,1,16.1,1,14.6c0-1.3,0.4-2.5,1.2-3.5c0.8-1,1.8-1.7,3.1-2c0.4-1.5,1.3-2.8,2.5-3.7
	C9,4.5,10.4,4,12,4c2,0,3.6,0.7,5,2c1.4,1.4,2,3,2,5c1.2,0.1,2.1,0.6,2.9,1.5c0.8,0.9,1.1,1.9,1.1,3c0,1.3-0.4,2.3-1.3,3.2
	c-0.9,0.9-1.9,1.3-3.2,1.3 M6.5,18h12c0.7,0,1.3-0.2,1.8-0.7c0.5-0.5,0.7-1.1,0.7-1.8c0-0.7-0.2-1.3-0.7-1.8
	c-0.5-0.5-1.1-0.7-1.8-0.7H17v-2c0-1.4-0.5-2.6-1.5-3.5c-1-1-2.2-1.5-3.5-1.5c-1.4,0-2.6,0.5-3.5,1.5C7.5,8.4,7,9.6,7,11H6.5
	c-1,0-1.8,0.3-2.5,1c-0.7,0.7-1,1.5-1,2.5s0.3,1.8,1,2.5C4.7,17.7,5.5,18,6.5,18z"/>
<path d="M10.7,13.2c-0.6,0-1,0.5-1,1c0,0.6,0.5,1,1,1c0.6,0,1-0.5,1-1C11.7,13.7,11.2,13.2,10.7,13.2 M8.6,11.2c-0.6,0-1,0.5-1,1
	c0,0.6,0.5,1,1,1c0.6,0,1-0.5,1-1C9.6,11.6,9.2,11.2,8.6,11.2 M8.6,15.3c-0.6,0-1,0.5-1,1c0,0.6,0.5,1,1,1c0.6,0,1-0.5,1-1
	C9.6,15.7,9.2,15.3,8.6,15.3 M14.8,11.2c0.6,0,1-0.5,1-1c0-0.6-0.5-1-1-1s-1,0.5-1,1C13.8,10.7,14.2,11.2,14.8,11.2 M12.7,15.3
	c-0.6,0-1,0.5-1,1c0,0.6,0.5,1,1,1c0.6,0,1-0.5,1-1C13.8,15.7,13.3,15.3,12.7,15.3 M14.8,13.2c-0.6,0-1,0.5-1,1c0,0.6,0.5,1,1,1
	s1-0.5,1-1C15.8,13.7,15.4,13.2,14.8,13.2 M12.7,11.2c-0.6,0-1,0.5-1,1c0,0.6,0.5,1,1,1c0.6,0,1-0.5,1-1
	C13.8,11.6,13.3,11.2,12.7,11.2 M10.7,9.1c-0.6,0-1,0.5-1,1c0,0.6,0.5,1,1,1c0.6,0,1-0.5,1-1C11.7,9.6,11.2,9.1,10.7,9.1z"/>
</svg>
